<svg xmlns="http://www.w3.org/2000/svg" xmlns:xlink="http://www.w3.org/1999/xlink" contentStyleType="text/css" height="496px" preserveAspectRatio="none" style="width:665px;height:496px;background:#FFFFFF;" version="1.1" viewBox="0 0 665 496" width="665px" zoomAndPan="magnify"><title>MAS: Supervisor Use Cases</title><defs/><g><text fill="#000000" font-family="Arial" font-size="14" font-weight="bold" lengthAdjust="spacing" textLength="191.2832" x="230.0049" y="23.5625">MAS: Supervisor Use Cases</text><!--cluster MAS: Supervisor scenarios--><g id="cluster_MAS: Supervisor scenarios"><rect fill="none" height="446" rx="2.5" ry="2.5" style="stroke:#181818;stroke-width:1.0;" width="323" x="111" y="44.9395"/><text fill="#000000" font-family="Arial" font-size="12" font-weight="bold" lengthAdjust="spacing" textLength="159.6152" x="192.6924" y="58.5645">MAS: Supervisor scenarios</text></g><g id="elem_UC01"><ellipse cx="272.6779" cy="111.9818" fill="#FFFFFF" rx="41.1779" ry="33.5423" style="stroke:#000000;stroke-width:0.5;"/><text fill="#000000" font-family="Arial" font-size="12" lengthAdjust="spacing" textLength="35.666" x="254.8449" y="99.8275">UC-01</text><text fill="#000000" font-family="Arial" font-size="12" lengthAdjust="spacing" textLength="34.7109" x="255.3224" y="114.347">Log in</text><text fill="#000000" font-family="Arial" font-size="12" lengthAdjust="spacing" textLength="41.5313" x="251.9123" y="128.8665">(FR-01)</text></g><g id="elem_UC07"><ellipse cx="272.4225" cy="225.0069" fill="#FFFFFF" rx="120.4225" ry="44.0674" style="stroke:#000000;stroke-width:0.5;"/><text fill="#000000" font-family="Arial" font-size="12" lengthAdjust="spacing" textLength="37.5762" x="253.6345" y="205.5928">UC-07</text><text fill="#000000" font-family="Arial" font-size="12" lengthAdjust="spacing" textLength="154.0605" x="195.3923" y="220.1124">Maintain research interests</text><text fill="#000000" font-family="Arial" font-size="12" lengthAdjust="spacing" textLength="111.6387" x="216.6032" y="234.6319">and publication text</text><text fill="#000000" font-family="Arial" font-size="12" lengthAdjust="spacing" textLength="44.0625" x="250.3913" y="249.1514">(FR-03)</text></g><g id="elem_UC08"><ellipse cx="272.3024" cy="337.74" fill="#FFFFFF" rx="81.3024" ry="33.8006" style="stroke:#000000;stroke-width:0.5;"/><text fill="#000000" font-family="Arial" font-size="12" lengthAdjust="spacing" textLength="38.209" x="253.1979" y="325.5857">UC-08</text><text fill="#000000" font-family="Arial" font-size="12" lengthAdjust="spacing" textLength="98.7363" x="222.9342" y="340.1053">Propose capacity</text><text fill="#000000" font-family="Arial" font-size="12" lengthAdjust="spacing" textLength="44.0625" x="250.2712" y="354.6248">(FR-03)</text></g><g id="elem_UC09"><ellipse cx="272.29" cy="440.74" fill="#FFFFFF" rx="145.29" ry="33.8006" style="stroke:#000000;stroke-width:0.5;"/><text fill="#000000" font-family="Arial" font-size="12" lengthAdjust="spacing" textLength="38.2266" x="253.1768" y="428.5857">UC-09</text><text fill="#000000" font-family="Arial" font-size="12" lengthAdjust="spacing" textLength="189.2285" x="177.6758" y="443.1053">View own published assignments</text><text fill="#000000" font-family="Arial" font-size="12" lengthAdjust="spacing" textLength="41.5313" x="251.5244" y="457.6248">(FR-10)</text></g><!--entity Supervisor--><g id="elem_Supervisor"><ellipse cx="36.6768" cy="252.9395" fill="#FFFFFF" rx="8" ry="8" style="stroke:#000000;stroke-width:0.5;"/><path d="M36.6768,260.9395 L36.6768,287.9395 M23.6768,268.9395 L49.6768,268.9395 M36.6768,287.9395 L23.6768,302.9395 M36.6768,287.9395 L49.6768,302.9395 " fill="none" style="stroke:#000000;stroke-width:0.5;"/><text fill="#000000" font-family="Arial" font-size="12" lengthAdjust="spacing" textLength="61.3535" x="6" y="316.0645">Supervisor</text></g><g id="elem_GMN12"><path d="M478,310.9395 L478,333.9395 L354.09,337.9395 L478,341.9395 L478,364.498 A0,0 0 0 0 478,364.498 L658.293,364.498 A0,0 0 0 0 658.293,364.498 L658.293,320.9395 L648.293,310.9395 L478,310.9395 A0,0 0 0 0 478,310.9395 " fill="#FEFFDD" style="stroke:#181818;stroke-width:0.5;"/><path d="M648.293,310.9395 L648.293,320.9395 L658.293,320.9395 L648.293,310.9395 " fill="#FEFFDD" style="stroke:#181818;stroke-width:0.5;"/><text fill="#000000" font-family="Arial" font-size="12" lengthAdjust="spacing" textLength="159.293" x="484" y="327.5645">A proposed capacity counts</text><text fill="#000000" font-family="Arial" font-size="12" lengthAdjust="spacing" textLength="144.1816" x="484" y="342.084">only after the coordinator</text><text fill="#000000" font-family="Arial" font-size="12" lengthAdjust="spacing" textLength="114.4277" x="484" y="356.6035">approves it (UC-12).</text></g><!--link Supervisor to UC01--><g id="link_Supervisor_UC01"><path d="M49.53,244.4195 C59.79,218.0795 77.07,183.9395 103,162.9395 C140.05,132.9295 188.5763,121.3796 225.4663,116.2896 " fill="none" id="Supervisor-to-UC01" style="stroke:#000000;stroke-width:1.0;"/><polygon fill="#000000" points="231.41,115.4695,221.9477,112.7371,226.4569,116.1529,223.0412,120.6621,231.41,115.4695" style="stroke:#000000;stroke-width:1.0;"/></g><!--link Supervisor to UC07--><g id="link_Supervisor_UC07"><path d="M67.14,274.7195 C93.64,268.2695 128.2104,259.8392 166.1104,250.6092 " fill="none" id="Supervisor-to-UC07" style="stroke:#000000;stroke-width:1.0;"/><polygon fill="#000000" points="171.94,249.1895,162.2491,247.4326,167.082,250.3726,164.1421,255.2054,171.94,249.1895" style="stroke:#000000;stroke-width:1.0;"/></g><!--link Supervisor to UC08--><g id="link_Supervisor_UC08"><path d="M67.14,289.0295 C100.71,297.0695 150.7447,309.0434 195.5947,319.7734 " fill="none" id="Supervisor-to-UC08" style="stroke:#000000;stroke-width:1.0;"/><polygon fill="#000000" points="201.43,321.1695,193.6077,315.1852,196.5672,320.0061,191.7463,322.9656,201.43,321.1695" style="stroke:#000000;stroke-width:1.0;"/></g><!--link Supervisor to UC09--><g id="link_Supervisor_UC09"><path d="M52.24,319.4795 C63.08,342.5595 79.95,371.0395 103,388.9395 C119.8,401.9895 134.2562,409.753 154.6262,417.103 " fill="none" id="Supervisor-to-UC09" style="stroke:#000000;stroke-width:1.0;"/><polygon fill="#000000" points="160.27,419.1395,153.1619,412.3222,155.5668,417.4424,150.4466,419.8474,160.27,419.1395" style="stroke:#000000;stroke-width:1.0;"/></g><!--SRC=[bLAnRjj03DtlAmXDoU32IWRR7Geu1Z8rHL33xQA5FL4I4Padt55naw3_NYfANC7nqa73yV4zyZrAMLk2k_NsCspxZk8Zfn1XbmWsc2WvrrAbe04Yrur2oP6ySX2N7bWwZBY7r60P3YmrLDWccY0bLTYtUXj4l-6UO1qPs_Fubfy9ygi9k8un73QXjNLkMlGF4wXFv6qxU740DmRLCVHIZhq_6rOQwY6M5AVyFnC5z6hr_-MxaPRzIoe3J9FWd1lYGQajq-mqrEH9C798sUlWTnFPRZERvuLy3JMm579n-ztUbw_AkyqyFsrT57A7B6eVH4g4qJT6LBA7fa9GIkZwNorx70u5Ih_rJVNwgBeuLLqMSXz35-pjiKFF-lI1j3mbhGhvmNI0S91nP6gejER4jUn9Xcq6YNn-b5WDAKuocSs-Z2O_rXPdQiipjPLp4fJUVj1GlM-wXcuqL1uTWRSxQp8mIFi4M5bee8rP3dPj5hJh6eYTCHyf0IjScC_ywlAJ8ujrcFCN]--></g></svg>