<svg xmlns="http://www.w3.org/2000/svg" xmlns:xlink="http://www.w3.org/1999/xlink" contentStyleType="text/css" height="1549px" preserveAspectRatio="none" style="width:1140px;height:1549px;background:#FFFFFF;" version="1.1" viewBox="0 0 1140 1549" width="1140px" zoomAndPan="magnify"><title>MAS: Department Coordinator Use Cases</title><defs/><g><text fill="#000000" font-family="Arial" font-size="14" font-weight="bold" lengthAdjust="spacing" textLength="282.8301" x="421.585" y="23.5625">MAS: Department Coordinator Use Cases</text><!--cluster MAS: Coordinator scenarios--><g id="cluster_MAS: Coordinator scenarios"><rect fill="none" height="1290" rx="2.5" ry="2.5" style="stroke:#181818;stroke-width:1.0;" width="1014" x="120" y="44.9395"/><text fill="#000000" font-family="Arial" font-size="12" font-weight="bold" lengthAdjust="spacing" textLength="165.6504" x="544.1748" y="58.5645">MAS: Coordinator scenarios</text></g><g id="elem_UC01"><ellipse cx="273.1779" cy="111.9818" fill="#FFFFFF" rx="41.1779" ry="33.5423" style="stroke:#000000;stroke-width:0.5;"/><text fill="#000000" font-family="Arial" font-size="12" lengthAdjust="spacing" textLength="35.666" x="255.3449" y="99.8275">UC-01</text><text fill="#000000" font-family="Arial" font-size="12" lengthAdjust="spacing" textLength="34.7109" x="255.8224" y="114.347">Log in</text><text fill="#000000" font-family="Arial" font-size="12" lengthAdjust="spacing" textLength="41.5313" x="252.4123" y="128.8665">(FR-01)</text></g><g id="elem_UC10"><ellipse cx="273.1728" cy="214.74" fill="#FFFFFF" rx="130.6728" ry="33.8006" style="stroke:#000000;stroke-width:0.5;"/><text fill="#000000" font-family="Arial" font-size="12" lengthAdjust="spacing" textLength="35.666" x="255.3398" y="202.5857">UC-10</text><text fill="#000000" font-family="Arial" font-size="12" lengthAdjust="spacing" textLength="168.5566" x="188.8945" y="217.1053">Create cycle and set deadline</text><text fill="#000000" font-family="Arial" font-size="12" lengthAdjust="spacing" textLength="44.4023" x="250.9717" y="231.6248">(FR-04)</text></g><g id="elem_UC11"><ellipse cx="272.8942" cy="317.74" fill="#FFFFFF" rx="114.3942" ry="33.8006" style="stroke:#000000;stroke-width:0.5;"/><text fill="#000000" font-family="Arial" font-size="12" lengthAdjust="spacing" textLength="32.9766" x="256.4059" y="305.5857">UC-11</text><text fill="#000000" font-family="Arial" font-size="12" lengthAdjust="spacing" textLength="145.5352" x="200.1266" y="320.1053">Enroll eligible participants</text><text fill="#000000" font-family="Arial" font-size="12" lengthAdjust="spacing" textLength="44.4023" x="250.693" y="334.6248">(FR-04)</text></g><g id="elem_UC12"><ellipse cx="272.9398" cy="420.74" fill="#FFFFFF" rx="126.9398" ry="33.8006" style="stroke:#000000;stroke-width:0.5;"/><text fill="#000000" font-family="Arial" font-size="12" lengthAdjust="spacing" textLength="35.4141" x="255.2328" y="408.5857">UC-12</text><text fill="#000000" font-family="Arial" font-size="12" lengthAdjust="spacing" textLength="163.2773" x="191.3011" y="423.1053">Approve supervisor capacity</text><text fill="#000000" font-family="Arial" font-size="12" lengthAdjust="spacing" textLength="44.0625" x="250.9085" y="437.6248">(FR-03)</text></g><g id="elem_UC13"><ellipse cx="273.0824" cy="534.0069" fill="#FFFFFF" rx="137.0824" ry="44.0674" style="stroke:#000000;stroke-width:0.5;"/><text fill="#000000" font-family="Arial" font-size="12" lengthAdjust="spacing" textLength="35.5078" x="255.3285" y="514.5928">UC-13</text><text fill="#000000" font-family="Arial" font-size="12" lengthAdjust="spacing" textLength="139.3594" x="203.4027" y="529.1124">Configure ranking policy</text><text fill="#000000" font-family="Arial" font-size="12" lengthAdjust="spacing" textLength="177.6211" x="184.2718" y="543.6319">(semantic weight, optional GPA</text><text fill="#000000" font-family="Arial" font-size="12" lengthAdjust="spacing" textLength="146.959" x="199.6029" y="558.1514">weight, versioned, FR-07)</text></g><g id="elem_UC14"><ellipse cx="648.3583" cy="543.74" fill="#FFFFFF" rx="100.8583" ry="33.8006" style="stroke:#000000;stroke-width:0.5;"/><text fill="#000000" font-family="Arial" font-size="12" lengthAdjust="spacing" textLength="35.8477" x="630.4345" y="531.5857">UC-14</text><text fill="#000000" font-family="Arial" font-size="12" lengthAdjust="spacing" textLength="126.3926" x="585.162" y="546.1053">Freeze input snapshot</text><text fill="#000000" font-family="Arial" font-size="12" lengthAdjust="spacing" textLength="44.4023" x="626.1572" y="560.6248">(FR-04)</text></g><g id="elem_UC15"><ellipse cx="272.8578" cy="646.74" fill="#FFFFFF" rx="92.8578" ry="33.8006" style="stroke:#000000;stroke-width:0.5;"/><text fill="#000000" font-family="Arial" font-size="12" lengthAdjust="spacing" textLength="35.3906" x="255.1625" y="634.5857">UC-15</text><text fill="#000000" font-family="Arial" font-size="12" lengthAdjust="spacing" textLength="115.0781" x="215.3187" y="649.1053">Run batch allocation</text><text fill="#000000" font-family="Arial" font-size="12" lengthAdjust="spacing" textLength="44.0742" x="250.8207" y="663.6248">(FR-08)</text></g><g id="elem_UC16"><ellipse cx="648.4589" cy="1115.74" fill="#FFFFFF" rx="102.9589" ry="33.8006" style="stroke:#000000;stroke-width:0.5;"/><text fill="#000000" font-family="Arial" font-size="12" lengthAdjust="spacing" textLength="35.5371" x="630.6904" y="1103.5857">UC-16</text><text fill="#000000" font-family="Arial" font-size="12" lengthAdjust="spacing" textLength="129.3633" x="583.7773" y="1118.1053">Review draft allocation</text><text fill="#000000" font-family="Arial" font-size="12" lengthAdjust="spacing" textLength="44.0918" x="626.413" y="1132.6248">(FR-09)</text></g><g id="elem_UC17"><ellipse cx="273.2247" cy="760.0069" fill="#FFFFFF" rx="97.2247" ry="44.0674" style="stroke:#000000;stroke-width:0.5;"/><text fill="#000000" font-family="Arial" font-size="12" lengthAdjust="spacing" textLength="34.8867" x="255.7814" y="740.5928">UC-17</text><text fill="#000000" font-family="Arial" font-size="12" lengthAdjust="spacing" textLength="95.168" x="225.6408" y="755.1124">Revise draft with</text><text fill="#000000" font-family="Arial" font-size="12" lengthAdjust="spacing" textLength="121.2539" x="212.5978" y="769.6319">manual reassignment</text><text fill="#000000" font-family="Arial" font-size="12" lengthAdjust="spacing" textLength="87.5449" x="229.4523" y="784.1514">(Should, FR-13)</text></g><g id="elem_UC18"><ellipse cx="648.6173" cy="1283.74" fill="#FFFFFF" rx="81.6173" ry="33.8006" style="stroke:#000000;stroke-width:0.5;"/><text fill="#000000" font-family="Arial" font-size="12" lengthAdjust="spacing" textLength="35.5195" x="630.8575" y="1271.5857">UC-18</text><text fill="#000000" font-family="Arial" font-size="12" lengthAdjust="spacing" textLength="99.1816" x="599.0265" y="1286.1053">Publish allocation</text><text fill="#000000" font-family="Arial" font-size="12" lengthAdjust="spacing" textLength="41.5313" x="627.8517" y="1300.6248">(FR-10)</text></g><g id="elem_UC19"><ellipse cx="272.8781" cy="872.74" fill="#FFFFFF" rx="109.8781" ry="33.8006" style="stroke:#000000;stroke-width:0.5;"/><text fill="#000000" font-family="Arial" font-size="12" lengthAdjust="spacing" textLength="35.5371" x="255.1095" y="860.5857">UC-19</text><text fill="#000000" font-family="Arial" font-size="12" lengthAdjust="spacing" textLength="139.1484" x="203.3039" y="875.1053">Export allocation as CSV</text><text fill="#000000" font-family="Arial" font-size="12" lengthAdjust="spacing" textLength="38.8418" x="253.4572" y="889.6248">(FR-11)</text></g><g id="elem_UC20"><ellipse cx="273.214" cy="975.74" fill="#FFFFFF" rx="68.214" ry="33.8006" style="stroke:#000000;stroke-width:0.5;"/><text fill="#000000" font-family="Arial" font-size="12" lengthAdjust="spacing" textLength="38.1035" x="254.1623" y="963.5857">UC-20</text><text fill="#000000" font-family="Arial" font-size="12" lengthAdjust="spacing" textLength="80.2266" x="233.1007" y="978.1053">View audit log</text><text fill="#000000" font-family="Arial" font-size="12" lengthAdjust="spacing" textLength="41.2793" x="252.5744" y="992.6248">(FR-12)</text></g><g id="elem_UC21"><ellipse cx="272.8065" cy="1078.74" fill="#FFFFFF" rx="107.8065" ry="33.8006" style="stroke:#000000;stroke-width:0.5;"/><text fill="#000000" font-family="Arial" font-size="12" lengthAdjust="spacing" textLength="35.4141" x="255.0995" y="1066.5857">UC-21</text><text fill="#000000" font-family="Arial" font-size="12" lengthAdjust="spacing" textLength="136.2188" x="204.6971" y="1081.1053">Compare with baselines</text><text fill="#000000" font-family="Arial" font-size="12" lengthAdjust="spacing" textLength="87.4277" x="229.0926" y="1095.6248">(Should, FR-15)</text></g><g id="elem_UC22"><ellipse cx="273.0175" cy="1181.74" fill="#FFFFFF" rx="111.0175" ry="33.8006" style="stroke:#000000;stroke-width:0.5;"/><text fill="#000000" font-family="Arial" font-size="12" lengthAdjust="spacing" textLength="37.8516" x="254.0917" y="1169.5857">UC-22</text><text fill="#000000" font-family="Arial" font-size="12" lengthAdjust="spacing" textLength="140.7598" x="202.6376" y="1184.1053">Compare draft scenarios</text><text fill="#000000" font-family="Arial" font-size="12" lengthAdjust="spacing" textLength="81.5449" x="232.245" y="1198.6248">(Could, FR-16)</text></g><g id="elem_UC24"><ellipse cx="1002.6758" cy="741.9746" fill="#FFFFFF" rx="115.6758" ry="25.5352" style="stroke:#000000;stroke-width:0.5;"/><text fill="#000000" font-family="Arial" font-size="12" lengthAdjust="spacing" textLength="38.2852" x="983.5333" y="737.0801">UC-24</text><text fill="#000000" font-family="Arial" font-size="12" lengthAdjust="spacing" textLength="160.3418" x="922.5049" y="751.5996">Compute semantic similarity</text></g><g id="elem_UC25"><ellipse cx="648.4455" cy="741.9286" fill="#FFFFFF" rx="117.9455" ry="25.9891" style="stroke:#000000;stroke-width:0.5;"/><text fill="#000000" font-family="Arial" font-size="12" lengthAdjust="spacing" textLength="37.8281" x="629.5314" y="737.034">UC-25</text><text fill="#000000" font-family="Arial" font-size="12" lengthAdjust="spacing" textLength="166.2363" x="565.3273" y="751.5536">Build supervisor-side ranking</text></g><g id="elem_UC26"><ellipse cx="648.4708" cy="646.74" fill="#FFFFFF" rx="121.4708" ry="33.8006" style="stroke:#000000;stroke-width:0.5;"/><text fill="#000000" font-family="Arial" font-size="12" lengthAdjust="spacing" textLength="37.9746" x="629.4835" y="634.5857">UC-26</text><text fill="#000000" font-family="Arial" font-size="12" lengthAdjust="spacing" textLength="155.543" x="570.6993" y="649.1053">Solve capacity-constrained</text><text fill="#000000" font-family="Arial" font-size="12" lengthAdjust="spacing" textLength="52.4824" x="622.2296" y="663.6248">matching</text></g><g id="elem_UC27"><ellipse cx="1002.4997" cy="1116.0069" fill="#FFFFFF" rx="96.4997" ry="44.0674" style="stroke:#000000;stroke-width:0.5;"/><text fill="#000000" font-family="Arial" font-size="12" lengthAdjust="spacing" textLength="37.3242" x="983.8376" y="1096.5928">UC-27</text><text fill="#000000" font-family="Arial" font-size="12" lengthAdjust="spacing" textLength="103.6699" x="950.6647" y="1111.1124">Validate allocation</text><text fill="#000000" font-family="Arial" font-size="12" lengthAdjust="spacing" textLength="112.5879" x="946.2057" y="1125.6319">(capacity, eligibility,</text><text fill="#000000" font-family="Arial" font-size="12" lengthAdjust="spacing" textLength="120.2285" x="942.3854" y="1140.1514">uniqueness, stability)</text></g><g id="elem_UC28"><ellipse cx="273.2094" cy="1284.74" fill="#FFFFFF" rx="85.2094" ry="33.8006" style="stroke:#000000;stroke-width:0.5;"/><text fill="#000000" font-family="Arial" font-size="12" lengthAdjust="spacing" textLength="37.957" x="254.2309" y="1272.5857">UC-28</text><text fill="#000000" font-family="Arial" font-size="12" lengthAdjust="spacing" textLength="104.2617" x="221.0786" y="1287.1053">Notify participants</text><text fill="#000000" font-family="Arial" font-size="12" lengthAdjust="spacing" textLength="87.8848" x="229.2671" y="1301.6248">(Should, FR-14)</text></g><!--entity Coordinator--><g id="elem_Coordinator"><ellipse cx="39.6973" cy="784.9395" fill="#FFFFFF" rx="8" ry="8" style="stroke:#000000;stroke-width:0.5;"/><path d="M39.6973,792.9395 L39.6973,819.9395 M26.6973,800.9395 L52.6973,800.9395 M39.6973,819.9395 L26.6973,834.9395 M39.6973,819.9395 L52.6973,834.9395 " fill="none" style="stroke:#000000;stroke-width:0.5;"/><text fill="#000000" font-family="Arial" font-size="12" lengthAdjust="spacing" textLength="66.709" x="6" y="848.0645">Department</text><text fill="#000000" font-family="Arial" font-size="12" lengthAdjust="spacing" textLength="67.3945" x="6" y="862.584">Coordinator</text></g><!--link Coordinator to UC01--><g id="link_Coordinator_UC01"><path d="M42.57,775.9795 C49.44,635.3595 73.23,210.3695 112,162.9395 C140.97,127.4895 188.6038,116.8737 225.7438,113.5537 " fill="none" id="Coordinator-to-UC01" style="stroke:#000000;stroke-width:1.0;"/><polygon fill="#000000" points="231.72,113.0195,222.3996,109.8367,226.7399,113.4646,223.1119,117.8049,231.72,113.0195" style="stroke:#000000;stroke-width:1.0;"/></g><!--link Coordinator to UC10--><g id="link_Coordinator_UC10"><path d="M40.28,776.2095 C40.6,658.3695 47.6,343.1495 112,265.9395 C124.7,250.7095 136.3871,242.2523 154.8571,234.6923 " fill="none" id="Coordinator-to-UC10" style="stroke:#000000;stroke-width:1.0;"/><polygon fill="#000000" points="160.41,232.4195,150.5655,232.1268,155.7826,234.3135,153.596,239.5306,160.41,232.4195" style="stroke:#000000;stroke-width:1.0;"/></g><!--link Coordinator to UC11--><g id="link_Coordinator_UC11"><path d="M41.77,776.0795 C45.53,674.2195 59.92,429.5895 112,368.9395 C126.91,351.5695 142.0584,342.0459 163.7484,334.4359 " fill="none" id="Coordinator-to-UC11" style="stroke:#000000;stroke-width:1.0;"/><polygon fill="#000000" points="169.41,332.4495,159.5933,331.6546,164.692,334.1048,162.2418,339.2035,169.41,332.4495" style="stroke:#000000;stroke-width:1.0;"/></g><!--link Coordinator to UC12--><g id="link_Coordinator_UC12"><path d="M44.08,776.3195 C51.67,692.5995 72.05,516.3795 112,471.9395 C125.74,456.6495 138.46,448.0893 157.77,440.5593 " fill="none" id="Coordinator-to-UC12" style="stroke:#000000;stroke-width:1.0;"/><polygon fill="#000000" points="163.36,438.3795,153.5217,437.9225,158.7017,440.196,156.4282,445.3759,163.36,438.3795" style="stroke:#000000;stroke-width:1.0;"/></g><!--link Coordinator to UC13--><g id="link_Coordinator_UC13"><path d="M43.31,776.0995 C48.77,725.8595 64.83,644.9195 112,594.9395 C125.98,580.1295 138.4661,571.3485 157.2661,562.8185 " fill="none" id="Coordinator-to-UC13" style="stroke:#000000;stroke-width:1.0;"/><polygon fill="#000000" points="162.73,560.3395,152.8814,560.4155,158.1768,562.4054,156.1869,567.7007,162.73,560.3395" style="stroke:#000000;stroke-width:1.0;"/></g><!--link Coordinator to UC15--><g id="link_Coordinator_UC15"><path d="M56.81,776.3795 C68.5,750.1695 86.67,718.2695 112,697.9395 C133.83,680.4095 156.0133,670.5161 182.4333,662.9261 " fill="none" id="Coordinator-to-UC15" style="stroke:#000000;stroke-width:1.0;"/><polygon fill="#000000" points="188.2,661.2695,178.4454,659.91,183.3944,662.65,180.6543,667.599,188.2,661.2695" style="stroke:#000000;stroke-width:1.0;"/></g><!--link Coordinator to UC16--><g id="link_Coordinator_UC16"><path d="M43.39,865.6395 C51.58,985.1695 76.64,1305.1495 112,1335.9395 C241.85,1448.9995 375.37,1414.7995 497,1292.9395 C518.34,1271.5495 509.18,1256.3295 527,1231.9395 C550.29,1200.0395 578.2888,1173.2092 603.6888,1151.3892 " fill="none" id="Coordinator-to-UC16" style="stroke:#000000;stroke-width:1.0;"/><polygon fill="#000000" points="608.24,1147.4795,598.8066,1150.3099,604.4473,1150.7376,604.0197,1156.3783,608.24,1147.4795" style="stroke:#000000;stroke-width:1.0;"/></g><!--link Coordinator to UC18--><g id="link_Coordinator_UC18"><path d="M42.54,865.5595 C49.01,997.1295 71.09,1376.6695 112,1412.9395 C257.98,1542.3395 506.4821,1387.0971 603.3921,1317.2671 " fill="none" id="Coordinator-to-UC18" style="stroke:#000000;stroke-width:1.0;"/><polygon fill="#000000" points="608.26,1313.7595,598.6197,1315.7756,604.2034,1316.6825,603.2966,1322.2662,608.26,1313.7595" style="stroke:#000000;stroke-width:1.0;"/></g><!--link Coordinator to UC19--><g id="link_Coordinator_UC19"><path d="M73.18,828.2795 C101.84,834.7095 139.0261,843.0635 177.7261,851.7635 " fill="none" id="Coordinator-to-UC19" style="stroke:#000000;stroke-width:1.0;"/><polygon fill="#000000" points="183.58,853.0795,175.6765,847.2029,178.7017,851.9828,173.9218,855.0081,183.58,853.0795" style="stroke:#000000;stroke-width:1.0;"/></g><!--link Coordinator to UC20--><g id="link_Coordinator_UC20"><path d="M62.77,865.6195 C74.87,885.9195 91.56,908.7395 112,923.9395 C140.13,944.8395 171.2209,956.1476 202.5009,963.7776 " fill="none" id="Coordinator-to-UC20" style="stroke:#000000;stroke-width:1.0;"/><polygon fill="#000000" points="208.33,965.1995,200.5343,959.1806,203.4724,964.0146,198.6385,966.9527,208.33,965.1995" style="stroke:#000000;stroke-width:1.0;"/></g><!--link Coordinator to UC21--><g id="link_Coordinator_UC21"><path d="M44.51,865.6395 C51,912.0295 67.94,983.7395 112,1026.9395 C129.62,1044.2095 147.349,1053.8791 170.819,1061.5791 " fill="none" id="Coordinator-to-UC21" style="stroke:#000000;stroke-width:1.0;"/><polygon fill="#000000" points="176.52,1063.4495,169.2154,1056.8432,171.7691,1061.8908,166.7215,1064.4446,176.52,1063.4495" style="stroke:#000000;stroke-width:1.0;"/></g><!--link Coordinator to UC22--><g id="link_Coordinator_UC22"><path d="M45.4,865.4695 C54.62,941.4295 76.84,1091.5795 112,1129.9395 C128.18,1147.5895 144.7385,1157.3406 167.4785,1165.0606 " fill="none" id="Coordinator-to-UC22" style="stroke:#000000;stroke-width:1.0;"/><polygon fill="#000000" points="173.16,1166.9895,165.9236,1160.3085,168.4254,1165.3821,163.3518,1167.8839,173.16,1166.9895" style="stroke:#000000;stroke-width:1.0;"/></g><!--link UC15 to UC14--><g id="link_UC15_UC14"><path d="M347.79,626.5895 C411.89,608.9095 498.6458,584.9842 563.8958,566.9942 " fill="none" id="UC15-to-UC14" style="stroke:#000000;stroke-width:1.0;stroke-dasharray:7.0,7.0;"/><polygon fill="#000000" points="569.68,565.3995,559.9406,563.9355,564.8598,566.7284,562.0669,571.6477,569.68,565.3995" style="stroke:#000000;stroke-width:1.0;"/><text fill="#000000" font-family="Arial" font-size="12" lengthAdjust="spacing" textLength="55.1777" x="441" y="583.5645">&#171;include&#187;</text></g><!--link UC15 to UC25--><g id="link_UC15_UC25"><path d="M350.03,666.2695 C414.34,682.6295 500.2452,704.4803 564.7952,720.9003 " fill="none" id="UC15-to-UC25" style="stroke:#000000;stroke-width:1.0;stroke-dasharray:7.0,7.0;"/><polygon fill="#000000" points="570.61,722.3795,562.8739,716.2842,565.7643,721.1468,560.9017,724.0373,570.61,722.3795" style="stroke:#000000;stroke-width:1.0;"/><text fill="#000000" font-family="Arial" font-size="12" lengthAdjust="spacing" textLength="55.1777" x="441" y="688.5645">&#171;include&#187;</text></g><!--link UC15 to UC26--><g id="link_UC15_UC26"><path d="M366.33,646.9395 C414.82,646.9395 468.85,646.9395 520.97,646.9395 " fill="none" id="UC15-to-UC26" style="stroke:#000000;stroke-width:1.0;stroke-dasharray:7.0,7.0;"/><polygon fill="#000000" points="526.97,646.9395,517.97,642.9395,521.97,646.9395,517.97,650.9395,526.97,646.9395" style="stroke:#000000;stroke-width:1.0;"/><text fill="#000000" font-family="Arial" font-size="12" lengthAdjust="spacing" textLength="55.1777" x="441" y="643.5645">&#171;include&#187;</text></g><!--link UC25 to UC24--><g id="link_UC25_UC24"><path d="M766.71,741.9395 C805.41,741.9395 842.39,741.9395 880.89,741.9395 " fill="none" id="UC25-to-UC24" style="stroke:#000000;stroke-width:1.0;stroke-dasharray:7.0,7.0;"/><polygon fill="#000000" points="886.89,741.9395,877.89,737.9395,881.89,741.9395,877.89,745.9395,886.89,741.9395" style="stroke:#000000;stroke-width:1.0;"/><text fill="#000000" font-family="Arial" font-size="12" lengthAdjust="spacing" textLength="55.1777" x="801" y="738.5645">&#171;include&#187;</text></g><!--link UC16 to UC27--><g id="link_UC16_UC27"><path d="M751.79,1115.9395 C800.4,1115.9395 852.17,1115.9395 899.9,1115.9395 " fill="none" id="UC16-to-UC27" style="stroke:#000000;stroke-width:1.0;stroke-dasharray:7.0,7.0;"/><polygon fill="#000000" points="905.9,1115.9395,896.9,1111.9395,900.9,1115.9395,896.9,1119.9395,905.9,1115.9395" style="stroke:#000000;stroke-width:1.0;"/><text fill="#000000" font-family="Arial" font-size="12" lengthAdjust="spacing" textLength="55.1777" x="801" y="1112.5645">&#171;include&#187;</text></g><!--link UC18 to UC27--><g id="link_UC18_UC27"><path d="M702.96,1258.4195 C765.18,1228.7295 862.5451,1182.2537 929.7851,1150.1637 " fill="none" id="UC18-to-UC27" style="stroke:#000000;stroke-width:1.0;stroke-dasharray:7.0,7.0;"/><polygon fill="#000000" points="935.2,1147.5795,925.3547,1147.8459,930.6875,1149.733,928.8004,1155.0658,935.2,1147.5795" style="stroke:#000000;stroke-width:1.0;"/><text fill="#000000" font-family="Arial" font-size="12" lengthAdjust="spacing" textLength="55.1777" x="801" y="1186.5645">&#171;include&#187;</text></g><!--link UC17 to UC16--><g id="link_UC17_UC16"><path d="M355.11,783.4995 C375.18,792.5195 395.16,804.6995 410,820.9395 C437.6,851.1195 418.34,873.2395 440,907.9395 C485.25,980.4095 555.4525,1043.3192 601.8025,1080.7592 " fill="none" id="UC17-to-UC16" style="stroke:#000000;stroke-width:1.0;stroke-dasharray:7.0,7.0;"/><polygon fill="#000000" points="606.47,1084.5295,601.9823,1075.7625,602.5804,1081.3876,596.9553,1081.9858,606.47,1084.5295" style="stroke:#000000;stroke-width:1.0;"/><text fill="#000000" font-family="Arial" font-size="12" lengthAdjust="spacing" textLength="52.8867" x="442.5" y="904.5645">&#171;extend&#187;</text></g><!--link UC17 to UC27--><g id="link_UC17_UC27"><path d="M343.44,790.4195 C364.87,800.0095 388.48,810.7495 410,820.9395 C603.7,912.6295 824.2221,1024.7896 932.2521,1080.2396 " fill="none" id="UC17-to-UC27" style="stroke:#000000;stroke-width:1.0;stroke-dasharray:7.0,7.0;"/><polygon fill="#000000" points="937.59,1082.9795,931.4097,1075.3111,933.1417,1080.6962,927.7566,1082.4283,937.59,1082.9795" style="stroke:#000000;stroke-width:1.0;"/><text fill="#000000" font-family="Arial" font-size="12" lengthAdjust="spacing" textLength="55.1777" x="621" y="874.5645">&#171;include&#187;</text></g><!--link UC28 to UC18--><g id="link_UC28_UC18"><path d="M358.29,1284.7095 C420.68,1284.5395 499.18,1284.336 560.72,1284.166 " fill="none" id="UC28-to-UC18" style="stroke:#000000;stroke-width:1.0;stroke-dasharray:7.0,7.0;"/><polygon fill="#000000" points="566.72,1284.1495,557.709,1280.1743,561.72,1284.1633,557.7311,1288.1743,566.72,1284.1495" style="stroke:#000000;stroke-width:1.0;"/><text fill="#000000" font-family="Arial" font-size="12" lengthAdjust="spacing" textLength="52.8867" x="442.5" y="1281.5645">&#171;extend&#187;</text></g><!--SRC=[bLHDRzD04BtdLunoAbA3ucs-Mg5AQQ1S026YbeilMtlYZBhPDRlhXeBuxyp6iMis1ecZv_czdNdxPZrvXV1nkRw2jrXAwtUeFQoCiJbfwOs5EuUmaWxTOA1muy4Ri5HiFUHaCVDazC0zacQkt87RojpiIHUmaSfX1ybn8olbRutsd-GEOMb9gdvyJJyG4j41bzQQ_SeeRkT6oUon0rKEC-uEVWu0RXWghAbqNl_xTKiUGvsdGTlb_-eeo2oC-R_yGKqRlhYMwevjGv2kQ-DW4CoIkc2tXmUxknwx3BMqPDpmq4Spq_1kDHedgVvW2Y2TwhFRB_pzwg1zjnedqQ_9c5kmA3r2zfpnGLBdu91l2cMkIEDHOT8e9EDOWGzxfwrH2b1HGGyi4iQZZ4gflJiHE6b1f7fPbjOy8RYgHFj4ZkVBP2apyiz7_aNB5p7_8hYeDrHK5i5A_HYoL1f5MI0xt74RbC4UGmJFmPGXW5B1-y_BL3VL9xIEovYVGpXktXvt4HytIVMjHUIySHeg3qxBqcsDFnbq4ZEdgVvIQNYGFjk2LCfaChHo92vQuZGcpfY8JuHxoAtaVJhXNhRSMSoTrrp-hBbxyjjKioSLMy0txnmLkixYsNfhAbKxaBmOFeyb5wd-N3qeSgTJ9EEMjeXfbnoKxwMntVuFaL_V7ybjJfFBY2muf_V105dbv46PuaWH3KN4mHH9oCMEiuY7eTbtXo7IBffqsah4qHJYHQ9shzqwrbYzICnQ2J68DIQrHiKhrcRHqOuKw_ZdXXU7HN1ORYfIUMSdHexoDk4DCGwBuB2iZU9bQZPeb1djl9KyUXvkdjFNuSU14HoOUwae3s_27zVRw9qV5vrK-4XrfUbRXUohEmVdPLrl3OdJ8pWzduodpNFyJ7JlfDqYiGWFP_VX6uskwvVijCYFKq-nzq_HLxpeAqxxYhE-ugAlUDbJ57rzYhu-Gvv23_3wzK5j0bVmvWtfJ5KvNbztCJ7z1pOxmKIBzMZE6cn-YYt-XWLmtZHQ7uZVFUgyvit_hYaQJHR_W_OR]--></g></svg>