<svg xmlns="http://www.w3.org/2000/svg" xmlns:xlink="http://www.w3.org/1999/xlink" contentStyleType="text/css" height="926px" preserveAspectRatio="none" style="width:1077px;height:926px;background:#FFFFFF;" version="1.1" viewBox="0 0 1077 926" width="1077px" zoomAndPan="magnify"><title>MAS: Department Coordinator Use Cases</title><defs/><g><text fill="#000000" font-family="Arial" font-size="14" font-weight="bold" lengthAdjust="spacing" textLength="282.8301" x="390.085" y="23.5625">MAS: Department Coordinator Use Cases</text><!--cluster MAS: Coordinator scenarios--><g id="cluster_MAS: Coordinator scenarios"><rect fill="none" height="707" rx="2.5" ry="2.5" style="stroke:#181818;stroke-width:1.0;" width="951" x="120" y="99.4395"/><text fill="#000000" font-family="Arial" font-size="12" font-weight="bold" lengthAdjust="spacing" textLength="165.6504" x="512.6748" y="113.0645">MAS: Coordinator scenarios</text></g><g id="elem_UC01"><ellipse cx="248.701" cy="166.24" fill="#FFFFFF" rx="74.201" ry="33.8006" style="stroke:#000000;stroke-width:0.5;"/><text fill="#000000" font-family="Arial" font-size="12" lengthAdjust="spacing" textLength="35.666" x="230.8679" y="154.0857">UC-01</text><text fill="#000000" font-family="Arial" font-size="12" lengthAdjust="spacing" textLength="61.834" x="217.784" y="168.6053">Log in with</text><text fill="#000000" font-family="Arial" font-size="12" lengthAdjust="spacing" textLength="88.6934" x="204.3543" y="183.1248">university email</text></g><g id="elem_UC16"><ellipse cx="248.5803" cy="260.5555" fill="#FFFFFF" rx="111.0803" ry="24.6161" style="stroke:#000000;stroke-width:0.5;"/><text fill="#000000" font-family="Arial" font-size="12" lengthAdjust="spacing" textLength="35.5371" x="230.8118" y="255.661">UC-16</text><text fill="#000000" font-family="Arial" font-size="12" lengthAdjust="spacing" textLength="148.1367" x="174.512" y="270.1805">Configure cycle deadlines</text></g><g id="elem_UC17"><ellipse cx="248.3681" cy="343.4732" fill="#FFFFFF" rx="99.8681" ry="23.5337" style="stroke:#000000;stroke-width:0.5;"/><text fill="#000000" font-family="Arial" font-size="12" lengthAdjust="spacing" textLength="34.8867" x="230.9247" y="338.5786">UC-17</text><text fill="#000000" font-family="Arial" font-size="12" lengthAdjust="spacing" textLength="124.9922" x="185.872" y="353.0982">Set global quota limits</text></g><g id="elem_UC18"><ellipse cx="248.7025" cy="426.68" fill="#FFFFFF" rx="111.7025" ry="24.7405" style="stroke:#000000;stroke-width:0.5;"/><text fill="#000000" font-family="Arial" font-size="12" lengthAdjust="spacing" textLength="35.5195" x="230.9428" y="421.7854">UC-18</text><text fill="#000000" font-family="Arial" font-size="12" lengthAdjust="spacing" textLength="149.8125" x="173.7963" y="436.305">Configure scoring weights</text></g><g id="elem_UC19"><ellipse cx="248.7113" cy="510.6817" fill="#FFFFFF" rx="111.7113" ry="24.7423" style="stroke:#000000;stroke-width:0.5;"/><text fill="#000000" font-family="Arial" font-size="12" lengthAdjust="spacing" textLength="35.5371" x="230.9427" y="505.7872">UC-19</text><text fill="#000000" font-family="Arial" font-size="12" lengthAdjust="spacing" textLength="149.8359" x="173.7933" y="520.3067">Run automatic assignment</text></g><g id="elem_UC20"><ellipse cx="592.5744" cy="680.4543" fill="#FFFFFF" rx="113.0744" ry="25.0149" style="stroke:#000000;stroke-width:0.5;"/><text fill="#000000" font-family="Arial" font-size="12" lengthAdjust="spacing" textLength="38.1035" x="573.5226" y="675.5598">UC-20</text><text fill="#000000" font-family="Arial" font-size="12" lengthAdjust="spacing" textLength="153.4805" x="515.8341" y="690.0793">Review distribution metrics</text></g><g id="elem_UC21"><ellipse cx="248.3977" cy="595.319" fill="#FFFFFF" rx="112.3977" ry="24.8795" style="stroke:#000000;stroke-width:0.5;"/><text fill="#000000" font-family="Arial" font-size="12" lengthAdjust="spacing" textLength="35.4141" x="230.6907" y="590.4245">UC-21</text><text fill="#000000" font-family="Arial" font-size="12" lengthAdjust="spacing" textLength="151.6758" x="172.5598" y="604.944">Reassign student manually</text></g><g id="elem_UC22"><ellipse cx="248.4842" cy="680.2363" fill="#FFFFFF" rx="109.4842" ry="24.2968" style="stroke:#000000;stroke-width:0.5;"/><text fill="#000000" font-family="Arial" font-size="12" lengthAdjust="spacing" textLength="37.8516" x="229.5584" y="675.3418">UC-22</text><text fill="#000000" font-family="Arial" font-size="12" lengthAdjust="spacing" textLength="143.8008" x="176.5838" y="689.8613">Publish final assignments</text></g><g id="elem_UC23"><ellipse cx="248.4284" cy="765.3251" fill="#FFFFFF" rx="112.4284" ry="24.8857" style="stroke:#000000;stroke-width:0.5;"/><text fill="#000000" font-family="Arial" font-size="12" lengthAdjust="spacing" textLength="37.9453" x="229.4557" y="760.4306">UC-23</text><text fill="#000000" font-family="Arial" font-size="12" lengthAdjust="spacing" textLength="151.7578" x="172.5495" y="774.9501">Export report (PDF / Excel)</text></g><g id="elem_UC24"><ellipse cx="939.6758" cy="576.4746" fill="#FFFFFF" rx="115.6758" ry="25.5352" style="stroke:#000000;stroke-width:0.5;"/><text fill="#000000" font-family="Arial" font-size="12" lengthAdjust="spacing" textLength="38.2852" x="920.5333" y="571.5801">UC-24</text><text fill="#000000" font-family="Arial" font-size="12" lengthAdjust="spacing" textLength="160.3418" x="859.5049" y="586.0996">Compute semantic similarity</text></g><g id="elem_UC25"><ellipse cx="592.6" cy="576.24" fill="#FFFFFF" rx="101.6" ry="33.8006" style="stroke:#000000;stroke-width:0.5;"/><text fill="#000000" font-family="Arial" font-size="12" lengthAdjust="spacing" textLength="37.8281" x="573.6859" y="564.0857">UC-25</text><text fill="#000000" font-family="Arial" font-size="12" lengthAdjust="spacing" textLength="127.4414" x="528.8793" y="578.6053">Compute multi-criteria</text><text fill="#000000" font-family="Arial" font-size="12" lengthAdjust="spacing" textLength="72.0176" x="556.5912" y="593.1248">utility scores</text></g><g id="elem_UC26"><ellipse cx="592.6953" cy="481.2785" fill="#FFFFFF" rx="114.6953" ry="25.3391" style="stroke:#000000;stroke-width:0.5;"/><text fill="#000000" font-family="Arial" font-size="12" lengthAdjust="spacing" textLength="37.9746" x="573.708" y="476.384">UC-26</text><text fill="#000000" font-family="Arial" font-size="12" lengthAdjust="spacing" textLength="157.7695" x="513.8105" y="490.9035">Solve constrained matching</text></g><!--entity Coordinator--><g id="elem_Coordinator"><ellipse cx="39.6973" cy="443.4395" fill="#FFFFFF" rx="8" ry="8" style="stroke:#000000;stroke-width:0.5;"/><path d="M39.6973,451.4395 L39.6973,478.4395 M26.6973,459.4395 L52.6973,459.4395 M39.6973,478.4395 L26.6973,493.4395 M39.6973,478.4395 L52.6973,493.4395 " fill="none" style="stroke:#000000;stroke-width:0.5;"/><text fill="#000000" font-family="Arial" font-size="12" lengthAdjust="spacing" textLength="66.709" x="6" y="506.5645">Department</text><text fill="#000000" font-family="Arial" font-size="12" lengthAdjust="spacing" textLength="67.3945" x="6" y="521.084">Coordinator</text></g><g id="elem_GMN29"><path d="M495,43.9395 L495,82.9785 L689.8301,82.9785 L689.8301,53.9395 L679.8301,43.9395 L495,43.9395 " fill="#FEFFDD" style="stroke:#181818;stroke-width:0.5;"/><path d="M679.8301,43.9395 L679.8301,53.9395 L689.8301,53.9395 L679.8301,43.9395 " fill="#FEFFDD" style="stroke:#181818;stroke-width:1.0;"/><text fill="#000000" font-family="Arial" font-size="12" lengthAdjust="spacing" textLength="169.8926" x="501" y="60.5645">Uses weights from UC-18 and</text><text fill="#000000" font-family="Arial" font-size="12" lengthAdjust="spacing" textLength="173.8301" x="501" y="75.084">quotas from UC-13 and UC-17.</text></g><!--link Coordinator to UC01--><g id="link_Coordinator_UC01"><path d="M40.92,434.9095 C43.82,377.8395 57.13,279.0395 112,218.4395 C129.59,199.0195 149.5289,188.6075 173.7989,180.9375 " fill="none" id="Coordinator-to-UC01" style="stroke:#000000;stroke-width:1.0;"/><polygon fill="#000000" points="179.52,179.1295,169.733,178.0274,174.7524,180.6361,172.1437,185.6556,179.52,179.1295" style="stroke:#000000;stroke-width:1.0;"/></g><!--link Coordinator to UC16--><g id="link_Coordinator_UC16"><path d="M47.45,434.7695 C55.96,394.7695 74.19,337.2195 112,302.4395 C125.41,290.0995 136.7351,283.3949 154.1051,277.2349 " fill="none" id="Coordinator-to-UC16" style="stroke:#000000;stroke-width:1.0;"/><polygon fill="#000000" points="159.76,275.2295,149.9406,274.4676,155.0476,276.9006,152.6146,282.0076,159.76,275.2295" style="stroke:#000000;stroke-width:1.0;"/></g><!--link Coordinator to UC17--><g id="link_Coordinator_UC17"><path d="M65.58,434.6795 C77.57,416.8195 93.38,397.4495 112,384.4395 C129.03,372.5495 143.8302,365.7873 163.7302,359.7273 " fill="none" id="Coordinator-to-UC17" style="stroke:#000000;stroke-width:1.0;"/><polygon fill="#000000" points="169.47,357.9795,159.6951,356.7748,164.6869,359.436,162.0256,364.4278,169.47,357.9795" style="stroke:#000000;stroke-width:1.0;"/></g><!--link Coordinator to UC18--><g id="link_Coordinator_UC18"><path d="M73.3,471.0495 C100.55,464.0695 134.4976,455.3782 169.1676,446.4982 " fill="none" id="Coordinator-to-UC18" style="stroke:#000000;stroke-width:1.0;"/><polygon fill="#000000" points="174.98,445.0095,165.269,443.3676,170.1364,446.2501,167.2539,451.1174,174.98,445.0095" style="stroke:#000000;stroke-width:1.0;"/></g><!--link Coordinator to UC19--><g id="link_Coordinator_UC19"><path d="M73.3,484.3595 C95.64,487.6995 120.4761,491.4212 149.9361,495.8312 " fill="none" id="Coordinator-to-UC19" style="stroke:#000000;stroke-width:1.0;"/><polygon fill="#000000" points="155.87,496.7195,147.5614,491.4311,150.9251,495.9792,146.377,499.343,155.87,496.7195" style="stroke:#000000;stroke-width:1.0;"/></g><!--link Coordinator to UC20--><g id="link_Coordinator_UC20"><path d="M43.5,524.1095 C49.99,605.3895 68.43,772.3495 112,807.4395 C250.99,919.3995 474.4211,770.4774 556.3011,708.3174 " fill="none" id="Coordinator-to-UC20" style="stroke:#000000;stroke-width:1.0;"/><polygon fill="#000000" points="561.08,704.6895,551.493,706.9454,557.0976,707.7127,556.3303,713.3173,561.08,704.6895" style="stroke:#000000;stroke-width:1.0;"/></g><!--link Coordinator to UC22--><g id="link_Coordinator_UC22"><path d="M50.16,524.2695 C60,559.6595 78.69,607.8395 112,637.4395 C126.2,650.0695 138.4528,657.0191 156.5728,663.3191 " fill="none" id="Coordinator-to-UC22" style="stroke:#000000;stroke-width:1.0;"/><polygon fill="#000000" points="162.24,665.2895,155.0527,658.5557,157.5173,663.6475,152.4256,666.112,162.24,665.2895" style="stroke:#000000;stroke-width:1.0;"/></g><!--link Coordinator to UC23--><g id="link_Coordinator_UC23"><path d="M41.51,524.2495 C45.16,578.3395 59.39,668.7095 112,722.4395 C124.52,735.2295 135.1889,742.1211 152.1189,748.4411 " fill="none" id="Coordinator-to-UC23" style="stroke:#000000;stroke-width:1.0;"/><polygon fill="#000000" points="157.74,750.5395,150.7073,743.6445,153.0557,748.7908,147.9094,751.1393,157.74,750.5395" style="stroke:#000000;stroke-width:1.0;"/></g><!--link UC19 to UC25--><g id="link_UC19_UC25"><path d="M332.73,526.4995 C384.63,536.5195 445.4388,548.2521 498.1188,558.4221 " fill="none" id="UC19-to-UC25" style="stroke:#000000;stroke-width:1.0;stroke-dasharray:7.0,7.0;"/><polygon fill="#000000" points="504.01,559.5595,495.9314,553.926,499.1006,558.6117,494.415,561.781,504.01,559.5595" style="stroke:#000000;stroke-width:1.0;"/><text fill="#000000" font-family="Arial" font-size="12" lengthAdjust="spacing" textLength="55.1777" x="392" y="537.0645">&#171;include&#187;</text></g><!--link UC19 to UC26--><g id="link_UC19_UC26"><path d="M353.04,501.6595 C394.92,498.1095 437.2415,494.5274 479.3815,490.9474 " fill="none" id="UC19-to-UC26" style="stroke:#000000;stroke-width:1.0;stroke-dasharray:7.0,7.0;"/><polygon fill="#000000" points="485.36,490.4395,476.0537,487.2157,480.3779,490.8627,476.7309,495.1869,485.36,490.4395" style="stroke:#000000;stroke-width:1.0;"/><text fill="#000000" font-family="Arial" font-size="12" lengthAdjust="spacing" textLength="55.1777" x="392" y="491.0645">&#171;include&#187;</text></g><!--link UC25 to UC24--><g id="link_UC25_UC24"><path d="M694.22,576.4395 C734.79,576.4395 775.81,576.4395 817.7,576.4395 " fill="none" id="UC25-to-UC24" style="stroke:#000000;stroke-width:1.0;stroke-dasharray:7.0,7.0;"/><polygon fill="#000000" points="823.7,576.4395,814.7,572.4395,818.7,576.4395,814.7,580.4395,823.7,576.4395" style="stroke:#000000;stroke-width:1.0;"/><text fill="#000000" font-family="Arial" font-size="12" lengthAdjust="spacing" textLength="55.1777" x="738" y="573.0645">&#171;include&#187;</text></g><!--link UC22 to UC20--><g id="link_UC22_UC20"><path d="M358.18,680.4395 C396.81,680.4395 434.35,680.4395 473.27,680.4395 " fill="none" id="UC22-to-UC20" style="stroke:#000000;stroke-width:1.0;stroke-dasharray:7.0,7.0;"/><polygon fill="#000000" points="479.27,680.4395,470.27,676.4395,474.27,680.4395,470.27,684.4395,479.27,680.4395" style="stroke:#000000;stroke-width:1.0;"/><text fill="#000000" font-family="Arial" font-size="12" lengthAdjust="spacing" textLength="55.1777" x="392" y="677.0645">&#171;include&#187;</text></g><!--link UC21 to UC20--><g id="link_UC21_UC20"><path d="M324.13,613.9895 C381.23,628.1795 453.7772,646.2122 510.9072,660.4122 " fill="none" id="UC21-to-UC20" style="stroke:#000000;stroke-width:1.0;stroke-dasharray:7.0,7.0;"/><polygon fill="#000000" points="516.73,661.8595,508.9606,655.8066,511.8776,660.6534,507.0309,663.5704,516.73,661.8595" style="stroke:#000000;stroke-width:1.0;"/><text fill="#000000" font-family="Arial" font-size="12" lengthAdjust="spacing" textLength="52.8867" x="393.5" y="630.0645">&#171;extend&#187;</text></g><!--link UC19 to GMN29--><g id="link_UC19_GMN29"><path d="M324.94,492.5495 C338.26,486.6395 351.04,478.8095 361,468.4395 C475.26,349.5995 368.38,239.5795 478,116.4395 C491.01,101.8295 508.91,90.9295 526.64,82.9595 " fill="none" id="UC19-GMN29" style="stroke:#000000;stroke-width:1.0;stroke-dasharray:7.0,7.0;"/></g><!--SRC=[bPH1Kzim48Nl_XKxERM7qDX00Wp330GujHsccKmllWXvxUmWhwWa4sYd_xqh1mTZVEafpZvzA_djamC5W_3jSdK6r_YeNAYH0oojTGMn2jR1sYCibKUV90RB0C62eseJe227Ef3bn3yG2wjgy1jLs2rn1QKo7djAWQLgJBYr7Bwh6k7IaJBZ-ef-8wHPJxnqpcwNriXnhepI3psfyQZbTF0d0RWIgNAsuMAtzkU60iQwl0swFl-trq7f-9h_ooSxRFBcMiuzsoQWVD_698bcAQx4xKbhTzzZhv6L8-idxJcwTvgibzDPclDNMm4nR2biScwOdj1v2Y-0jIBJxhHUpj81cCxZWRYagd48-aNBpWMgmX2ZVuNI-H1QvBp209Mnzyh0hyO61OPg2djaCKHE-ljuRLqS_nPZHlRGoH0wpVb7mw2QO6iLICiwJnL77plcTC1aCs7mYN0hqVF1qNqJqmSrohFkjifcGooDsAuz-D0KCU2ruaOPyz91G_EoBEUxvjwGtq0fGpAzy-rtoeRGOSutpu_M1N3O_dowkxw5Bt3phD5yxh33PCWTHGVhnoQ8Vp9JZdvuCTr89iB-Z4T3xFWDg-Ngq5JBSfHx9I49P692uZZsqywEXnqa8YjhdYGUbiLH9T4en9kWDpB3Zfh7jFVJEfrUx0BtiIY16YakneedOyNJaQ9CTAIOZHN5sjW43WxQlyTm1kVdnDh8r2yktcdp3veiVzMEFcfPfyq6MXJJzo8-1-GYQcnbDhklfIsxJCi7rNVt0qfdQsXl4IWkH6slNAz-6Eljq-8WaROGU_u3]--></g></svg>