<svg xmlns="http://www.w3.org/2000/svg" xmlns:xlink="http://www.w3.org/1999/xlink" contentStyleType="text/css" height="985px" preserveAspectRatio="none" style="width:1104px;height:985px;background:#FFFFFF;" version="1.1" viewBox="0 0 1104 985" width="1104px" zoomAndPan="magnify"><title>MAS: Student Use Cases</title><defs/><g><text fill="#000000" font-family="Arial" font-size="14" font-weight="bold" lengthAdjust="spacing" textLength="170.2354" x="459.8823" y="23.5625">MAS: Student Use Cases</text><!--cluster MAS: Student scenarios--><g id="cluster_MAS: Student scenarios"><rect fill="none" height="677" rx="2.5" ry="2.5" style="stroke:#181818;stroke-width:1.0;" width="1001" x="97" y="113.9395"/><text fill="#000000" font-family="Arial" font-size="12" font-weight="bold" lengthAdjust="spacing" textLength="141.5742" x="526.7129" y="127.5645">MAS: Student scenarios</text></g><g id="elem_UC01"><ellipse cx="254.201" cy="180.74" fill="#FFFFFF" rx="74.201" ry="33.8006" style="stroke:#000000;stroke-width:0.5;"/><text fill="#000000" font-family="Arial" font-size="12" lengthAdjust="spacing" textLength="35.666" x="236.3679" y="168.5857">UC-01</text><text fill="#000000" font-family="Arial" font-size="12" lengthAdjust="spacing" textLength="61.834" x="223.284" y="183.1053">Log in with</text><text fill="#000000" font-family="Arial" font-size="12" lengthAdjust="spacing" textLength="88.6934" x="209.8543" y="197.6248">university email</text></g><g id="elem_UC02"><ellipse cx="253.9177" cy="273.9732" fill="#FFFFFF" rx="101.4177" ry="23.5337" style="stroke:#000000;stroke-width:0.5;"/><text fill="#000000" font-family="Arial" font-size="12" lengthAdjust="spacing" textLength="38.1035" x="234.8659" y="269.0786">UC-02</text><text fill="#000000" font-family="Arial" font-size="12" lengthAdjust="spacing" textLength="127.1836" x="190.3259" y="283.5982">Fill in academic profile</text></g><g id="elem_UC03"><ellipse cx="627.4921" cy="640.9732" fill="#FFFFFF" rx="102.9921" ry="23.5337" style="stroke:#000000;stroke-width:0.5;"/><text fill="#000000" font-family="Arial" font-size="12" lengthAdjust="spacing" textLength="38.1973" x="608.3934" y="636.0786">UC-03</text><text fill="#000000" font-family="Arial" font-size="12" lengthAdjust="spacing" textLength="129.4102" x="562.787" y="650.5982">Submit thesis proposal</text></g><g id="elem_UC04"><ellipse cx="254.0987" cy="554.74" fill="#FFFFFF" rx="74.5987" ry="33.8006" style="stroke:#000000;stroke-width:0.5;"/><text fill="#000000" font-family="Arial" font-size="12" lengthAdjust="spacing" textLength="38.5371" x="234.8302" y="542.5857">UC-04</text><text fill="#000000" font-family="Arial" font-size="12" lengthAdjust="spacing" textLength="89.2559" x="209.4708" y="557.1053">Check proposal</text><text fill="#000000" font-family="Arial" font-size="12" lengthAdjust="spacing" textLength="72.2168" x="217.9903" y="571.6248">compatibility</text></g><g id="elem_UC05"><ellipse cx="627.7094" cy="735.7813" fill="#FFFFFF" rx="112.2094" ry="24.8419" style="stroke:#000000;stroke-width:0.5;"/><text fill="#000000" font-family="Arial" font-size="12" lengthAdjust="spacing" textLength="38.0801" x="608.6693" y="730.8868">UC-05</text><text fill="#000000" font-family="Arial" font-size="12" lengthAdjust="spacing" textLength="151.1719" x="552.1234" y="745.4063">Browse supervisor catalog</text></g><g id="elem_UC06"><ellipse cx="254.115" cy="657.74" fill="#FFFFFF" rx="77.615" ry="33.8006" style="stroke:#000000;stroke-width:0.5;"/><text fill="#000000" font-family="Arial" font-size="12" lengthAdjust="spacing" textLength="38.2266" x="235.0017" y="645.5857">UC-06</text><text fill="#000000" font-family="Arial" font-size="12" lengthAdjust="spacing" textLength="93.5215" x="207.3542" y="660.1053">Search and filter</text><text fill="#000000" font-family="Arial" font-size="12" lengthAdjust="spacing" textLength="66.3223" x="220.9538" y="674.6248">supervisors</text></g><g id="elem_UC07"><ellipse cx="254.1966" cy="451.74" fill="#FFFFFF" rx="141.1966" ry="33.8006" style="stroke:#000000;stroke-width:0.5;"/><text fill="#000000" font-family="Arial" font-size="12" lengthAdjust="spacing" textLength="37.5762" x="235.4085" y="439.5857">UC-07</text><text fill="#000000" font-family="Arial" font-size="12" lengthAdjust="spacing" textLength="183.4395" x="162.4768" y="454.1053">View recommended supervisors</text><text fill="#000000" font-family="Arial" font-size="12" lengthAdjust="spacing" textLength="97.5234" x="205.4348" y="468.6248">with match score</text></g><g id="elem_UC08"><ellipse cx="254.1039" cy="358.0602" fill="#FFFFFF" rx="113.6039" ry="25.1208" style="stroke:#000000;stroke-width:0.5;"/><text fill="#000000" font-family="Arial" font-size="12" lengthAdjust="spacing" textLength="38.209" x="234.9994" y="353.1657">UC-08</text><text fill="#000000" font-family="Arial" font-size="12" lengthAdjust="spacing" textLength="154.8867" x="176.6605" y="367.6852">Rank preferred supervisors</text></g><g id="elem_UC09"><ellipse cx="253.7508" cy="750.9732" fill="#FFFFFF" rx="99.2508" ry="23.5337" style="stroke:#000000;stroke-width:0.5;"/><text fill="#000000" font-family="Arial" font-size="12" lengthAdjust="spacing" textLength="38.2266" x="234.6375" y="746.0786">UC-09</text><text fill="#000000" font-family="Arial" font-size="12" lengthAdjust="spacing" textLength="124.1191" x="191.6912" y="760.5982">View final assignment</text></g><g id="elem_UC24"><ellipse cx="627.6758" cy="514.9746" fill="#FFFFFF" rx="115.6758" ry="25.5352" style="stroke:#000000;stroke-width:0.5;"/><text fill="#000000" font-family="Arial" font-size="12" lengthAdjust="spacing" textLength="38.2852" x="608.5333" y="510.0801">UC-24</text><text fill="#000000" font-family="Arial" font-size="12" lengthAdjust="spacing" textLength="160.3418" x="547.5049" y="524.5996">Compute semantic similarity</text></g><g id="elem_UC27"><ellipse cx="971.1216" cy="641.0638" fill="#FFFFFF" rx="111.1216" ry="24.6243" style="stroke:#000000;stroke-width:0.5;"/><text fill="#000000" font-family="Arial" font-size="12" lengthAdjust="spacing" textLength="37.3242" x="952.4595" y="636.1692">UC-27</text><text fill="#000000" font-family="Arial" font-size="12" lengthAdjust="spacing" textLength="148.248" x="896.9976" y="650.6888">Update profile embedding</text></g><g id="elem_UC28"><ellipse cx="627.6953" cy="357.7785" fill="#FFFFFF" rx="114.6953" ry="25.3391" style="stroke:#000000;stroke-width:0.5;"/><text fill="#000000" font-family="Arial" font-size="12" lengthAdjust="spacing" textLength="37.957" x="608.7168" y="352.884">UC-28</text><text fill="#000000" font-family="Arial" font-size="12" lengthAdjust="spacing" textLength="157.7695" x="548.8105" y="367.4035">Validate deadline and quota</text></g><!--entity Student--><g id="elem_Student"><ellipse cx="28.04" cy="490.9395" fill="#FFFFFF" rx="8" ry="8" style="stroke:#000000;stroke-width:0.5;"/><path d="M28.04,498.9395 L28.04,525.9395 M15.04,506.9395 L41.04,506.9395 M28.04,525.9395 L15.04,540.9395 M28.04,525.9395 L41.04,540.9395 " fill="none" style="stroke:#000000;stroke-width:0.5;"/><text fill="#000000" font-family="Arial" font-size="12" lengthAdjust="spacing" textLength="44.0801" x="6" y="554.0645">Student</text></g><g id="elem_GMN30"><path d="M519,43.9395 L519,97.498 L735.8789,97.498 L735.8789,53.9395 L725.8789,43.9395 L519,43.9395 " fill="#FEFFDD" style="stroke:#181818;stroke-width:0.5;"/><path d="M725.8789,43.9395 L725.8789,53.9395 L735.8789,53.9395 L725.8789,43.9395 " fill="#FEFFDD" style="stroke:#181818;stroke-width:1.0;"/><text fill="#000000" font-family="Arial" font-size="12" lengthAdjust="spacing" textLength="187.752" x="525" y="60.5645">Ordered list: 1st, 2nd, 3rd choice.</text><text fill="#000000" font-family="Arial" font-size="12" lengthAdjust="spacing" textLength="195.8789" x="525" y="75.084">Accepted only before the deadline</text><text fill="#000000" font-family="Arial" font-size="12" lengthAdjust="spacing" textLength="72.9961" x="525" y="89.6035">set in UC-16.</text></g><!--link Student to UC01--><g id="link_Student_UC01"><path d="M32.18,482.4395 C38.78,413.2495 56.15,269.2895 89,232.9395 C112.43,207.0195 142.8195,195.1208 175.2995,188.5408 " fill="none" id="Student-to-UC01" style="stroke:#000000;stroke-width:1.0;"/><polygon fill="#000000" points="181.18,187.3495,171.565,185.2161,176.2795,188.3422,173.1534,193.0568,181.18,187.3495" style="stroke:#000000;stroke-width:1.0;"/></g><!--link Student to UC02--><g id="link_Student_UC02"><path d="M29.31,482.0895 C31.8,436.0395 43.14,359.0095 89,314.9395 C107.3,297.3495 126.1327,288.3985 150.7627,282.3585 " fill="none" id="Student-to-UC02" style="stroke:#000000;stroke-width:1.0;"/><polygon fill="#000000" points="156.59,280.9295,146.8963,279.1881,151.7339,282.1203,148.8017,286.9579,156.59,280.9295" style="stroke:#000000;stroke-width:1.0;"/></g><!--link Student to UC03--><g id="link_Student_UC03"><path d="M31.63,557.5195 C37.24,625.1195 52.9,762.9395 89,791.9395 C195.02,877.1195 267.3,838.7195 395,791.9395 C458.96,768.5095 454.44,729.3695 512,692.9395 C531.37,680.6795 548.5991,672.1022 568.6891,663.4522 " fill="none" id="Student-to-UC03" style="stroke:#000000;stroke-width:1.0;"/><polygon fill="#000000" points="574.2,661.0795,564.3518,660.9647,569.6076,663.0568,567.5155,668.3126,574.2,661.0795" style="stroke:#000000;stroke-width:1.0;"/></g><!--link Student to UC04--><g id="link_Student_UC04"><path d="M50.07,523.2295 C80.24,527.9495 131.2319,535.9134 177.1319,543.0834 " fill="none" id="Student-to-UC04" style="stroke:#000000;stroke-width:1.0;"/><polygon fill="#000000" points="183.06,544.0095,174.7852,538.6683,178.1199,543.2378,173.5505,546.5725,183.06,544.0095" style="stroke:#000000;stroke-width:1.0;"/></g><!--link Student to UC05--><g id="link_Student_UC05"><path d="M30.01,557.5095 C33,636.1395 44.62,813.8795 89,850.9395 C241.36,978.1595 496.0135,826.1107 588.0135,763.3507 " fill="none" id="Student-to-UC05" style="stroke:#000000;stroke-width:1.0;"/><polygon fill="#000000" points="592.97,759.9695,583.281,761.7369,588.8395,762.7871,587.7893,768.3457,592.97,759.9695" style="stroke:#000000;stroke-width:1.0;"/></g><!--link Student to UC07--><g id="link_Student_UC07"><path d="M50.29,512.6595 C59.41,509.5895 70.2,506.0195 80,502.9395 C106.74,494.5495 130.1739,487.4828 156.8239,479.6428 " fill="none" id="Student-to-UC07" style="stroke:#000000;stroke-width:1.0;"/><polygon fill="#000000" points="162.58,477.9495,152.817,476.6521,157.7833,479.3606,155.0748,484.3269,162.58,477.9495" style="stroke:#000000;stroke-width:1.0;"/></g><!--link Student to UC08--><g id="link_Student_UC08"><path d="M38.69,482.3795 C47.5,455.6095 63.17,420.7795 89,399.9395 C107.18,385.2695 124.1078,377.2612 146.7778,370.9812 " fill="none" id="Student-to-UC08" style="stroke:#000000;stroke-width:1.0;"/><polygon fill="#000000" points="152.56,369.3795,142.8188,367.9273,147.7415,370.7143,144.9545,375.637,152.56,369.3795" style="stroke:#000000;stroke-width:1.0;"/></g><!--link Student to UC09--><g id="link_Student_UC09"><path d="M30.49,557.5095 C34.26,600.2395 46.96,669.2195 89,708.9395 C108.01,726.9095 127.7978,736.0503 153.1278,742.1703 " fill="none" id="Student-to-UC09" style="stroke:#000000;stroke-width:1.0;"/><polygon fill="#000000" points="158.96,743.5795,151.1511,737.5777,154.0998,742.4052,149.2723,745.3539,158.96,743.5795" style="stroke:#000000;stroke-width:1.0;"/></g><!--link UC03 to UC27--><g id="link_UC03_UC27"><path d="M730.96,640.9395 C771.63,640.9395 812.49,640.9395 853.88,640.9395 " fill="none" id="UC03-to-UC27" style="stroke:#000000;stroke-width:1.0;stroke-dasharray:7.0,7.0;"/><polygon fill="#000000" points="859.88,640.9395,850.88,636.9395,854.88,640.9395,850.88,644.9395,859.88,640.9395" style="stroke:#000000;stroke-width:1.0;"/><text fill="#000000" font-family="Arial" font-size="12" lengthAdjust="spacing" textLength="55.1777" x="774" y="637.5645">&#171;include&#187;</text></g><!--link UC04 to UC24--><g id="link_UC04_UC24"><path d="M326.63,547.2295 C382.5,541.2095 454.9046,533.4226 517.5146,526.6726 " fill="none" id="UC04-to-UC24" style="stroke:#000000;stroke-width:1.0;stroke-dasharray:7.0,7.0;"/><polygon fill="#000000" points="523.48,526.0295,514.1031,523.0172,518.5088,526.5654,514.9606,530.9711,523.48,526.0295" style="stroke:#000000;stroke-width:1.0;"/><text fill="#000000" font-family="Arial" font-size="12" lengthAdjust="spacing" textLength="55.1777" x="426" y="528.5645">&#171;include&#187;</text></g><!--link UC07 to UC24--><g id="link_UC07_UC24"><path d="M369.75,471.3995 C423.03,480.4395 479.5844,490.0267 529.5544,498.4967 " fill="none" id="UC07-to-UC24" style="stroke:#000000;stroke-width:1.0;stroke-dasharray:7.0,7.0;"/><polygon fill="#000000" points="535.47,499.4995,527.265,494.0516,530.5403,498.6639,525.9281,501.9391,535.47,499.4995" style="stroke:#000000;stroke-width:1.0;"/><text fill="#000000" font-family="Arial" font-size="12" lengthAdjust="spacing" textLength="55.1777" x="426" y="478.5645">&#171;include&#187;</text></g><!--link UC08 to UC28--><g id="link_UC08_UC28"><path d="M367.72,357.9395 C413.74,357.9395 460.86,357.9395 506.96,357.9395 " fill="none" id="UC08-to-UC28" style="stroke:#000000;stroke-width:1.0;stroke-dasharray:7.0,7.0;"/><polygon fill="#000000" points="512.96,357.9395,503.96,353.9395,507.96,357.9395,503.96,361.9395,512.96,357.9395" style="stroke:#000000;stroke-width:1.0;"/><text fill="#000000" font-family="Arial" font-size="12" lengthAdjust="spacing" textLength="55.1777" x="426" y="354.5645">&#171;include&#187;</text></g><!--link UC04 to UC03--><g id="link_UC04_UC03"><path d="M320.99,570.2195 C386.56,585.3995 481.0047,607.2558 548.6247,622.9158 " fill="none" id="UC04-to-UC03" style="stroke:#000000;stroke-width:1.0;stroke-dasharray:7.0,7.0;"/><polygon fill="#000000" points="554.47,624.2695,546.6045,618.342,549.5989,623.1414,544.7996,626.1358,554.47,624.2695" style="stroke:#000000;stroke-width:1.0;"/><text fill="#000000" font-family="Arial" font-size="12" lengthAdjust="spacing" textLength="52.8867" x="427.5" y="592.5645">&#171;extend&#187;</text></g><!--link UC06 to UC05--><g id="link_UC06_UC05"><path d="M324.44,672.5195 C387.13,685.6795 473.5181,703.8164 539.5681,717.6864 " fill="none" id="UC06-to-UC05" style="stroke:#000000;stroke-width:1.0;stroke-dasharray:7.0,7.0;"/><polygon fill="#000000" points="545.44,718.9195,537.4541,713.1552,540.5467,717.8919,535.8101,720.9845,545.44,718.9195" style="stroke:#000000;stroke-width:1.0;"/><text fill="#000000" font-family="Arial" font-size="12" lengthAdjust="spacing" textLength="52.8867" x="427.5" y="691.5645">&#171;extend&#187;</text></g><!--link UC08 to GMN30--><g id="link_UC08_GMN30"><path d="M341.42,341.7995 C360.31,335.5395 379.33,326.8895 395,314.9395 C472.08,256.1995 440.67,196.5395 512,130.9395 C526.12,117.9495 543.59,106.9495 560.58,98.0495 " fill="none" id="UC08-GMN30" style="stroke:#000000;stroke-width:1.0;stroke-dasharray:7.0,7.0;"/></g><!--SRC=[bPHDRzim38Rl_XL4pctGE9yjYW1fW9xs0Ip8Tl55aUYOg4nbajoi6_RVHoTrvch3W1tDbmyflQGSALg4zwlD7MnYOv0ZR0F2MWKCMMQnZ10TUDfN4Gnvr94SP-69-A2ygY5KohWZyHvAPGFs58EbQcnyT1m_g1fXvKdPl-iR-eumodlYodjtN3lhF3nOfPzwKXDGo-dWHmRm8DBUkuRDEVTBHH7RkFC6VP__sQkWT9Ju__BP6HkysZG05JhBigmrHl5Uh1oyyJ9ePEN9XS6fNtVsmNPzVJCg-9tR0p4SALO5DqpFw0F55y1QaJrrsAvlHYcO5_n8rhQaqifWJHeEtfLaiMFob1aNl6bsDSauAmmKMk3WWhfq6QV4fE1rXVhfabcmTlL1HTgHbKDsu2G5fmK_oFJaCpG7zCyKn3Qjeh9ktq7J59h9-L1vNO5Y0tALYBxWtmL2HyvISbxmPy8Zo0XSNICRDBt6eU3MNQXLbDf1Et_nQ9vMMXJyIN5xOIpH-xTrEcgHKhUl_KjYPIKfq9xhRa44kCqI8c-T5IURA0x9f3dA_0BLP6LJBhxcgQ-vN7HxC4gers7BckpG67by7PDUAPShVLQMJfH1PImndXp-shYeEcpHhdUtijVNo_FM9O4y3OpJm2GDJDF0F0qiqe2urPQ6uN1vkX3SmVqziRQIjLossgJJ9dzgytzeYqvR95g_g7HkHVmMPP7EtAoJfc-bZ9sOUlupkh9RZO_jZqCsnrA8Tp0AyGfoDbSmzWPqvKZZKB9MMkCXIffZ-m8xB6KjsuTvcP7a18pj2vSfZcR3J7f2s_0N]--></g></svg>